{"asset":{"version":"2.0","generator":"babylon.js glTF exporter for 3dsmax 2021 v20211112.3"},"scene":0,"scenes":[{"nodes":[0]}],"nodes":[{"mesh":0,"translation":[-36.4508057,5.03787851,-0.965992153],"rotation":[0.7071068,0.0,0.0,0.7071067],"name":"Line001"}],"meshes":[{"primitives":[{"attributes":{"POSITION":1,"NORMAL":2,"TEXCOORD_0":3},"indices":0,"material":0}],"name":"Line001"}],"accessors":[{"bufferView":0,"componentType":5123,"count":150,"type":"SCALAR","name":"accessorIndices"},{"bufferView":1,"componentType":5126,"count":58,"max":[4.96362543,6.64000034,4.683213],"min":[-3.57613754,0.0,-2.92818666],"type":"VEC3","name":"accessorPositions"},{"bufferView":1,"byteOffset":696,"componentType":5126,"count":58,"type":"VEC3","name":"accessorNormals"},{"bufferView":2,"componentType":5126,"count":58,"type":"VEC2","name":"accessorUVs"}],"bufferViews":[{"buffer":0,"byteLength":300,"name":"bufferViewScalar"},{"buffer":0,"byteOffset":300,"byteLength":1392,"byteStride":12,"name":"bufferViewFloatVec3"},{"buffer":0,"byteOffset":1692,"byteLength":464,"byteStride":8,"name":"bufferViewFloatVec2"}],"buffers":[{"uri":"uvwani.bin","byteLength":2156}],"materials":[{"pbrMetallicRoughness":{"baseColorTexture":{"index":0},"metallicFactor":0.0,"roughnessFactor":0.0},"doubleSided":true,"name":"Material #516","extras":{"babylonSeparateCullingPass":false}}],"textures":[{"sampler":0,"source":0,"name":"pattern-810x416.jpg"}],"images":[{"uri":"pattern-810x416.jpg"}],"samplers":[{"magFilter":9729,"minFilter":9987}]}