{"asset":{"version":"2.0","generator":"babylon.js glTF exporter for 3dsmax 2021 v20211112.3"},"scene":0,"scenes":[{"nodes":[0]}],"nodes":[{"mesh":0,"translation":[-25.693964,0.991344869,12.3727026],"name":"Box004"}],"meshes":[{"primitives":[{"attributes":{"POSITION":1,"NORMAL":2,"TEXCOORD_0":3},"indices":0}],"name":"Box004"}],"accessors":[{"bufferView":0,"componentType":5123,"count":132,"type":"SCALAR","name":"accessorIndices"},{"bufferView":1,"componentType":5126,"count":88,"max":[21.9431229,11.6871223,8.976466],"min":[-14.056571,0.09999786,-29.0232162],"type":"VEC3","name":"accessorPositions"},{"bufferView":1,"byteOffset":1056,"componentType":5126,"count":88,"type":"VEC3","name":"accessorNormals"},{"bufferView":2,"componentType":5126,"count":88,"type":"VEC2","name":"accessorUVs"}],"bufferViews":[{"buffer":0,"byteLength":264,"name":"bufferViewScalar"},{"buffer":0,"byteOffset":264,"byteLength":2112,"byteStride":12,"name":"bufferViewFloatVec3"},{"buffer":0,"byteOffset":2376,"byteLength":704,"byteStride":8,"name":"bufferViewFloatVec2"}],"buffers":[{"uri":"220214_export_01_collision.bin","byteLength":3080}]}